<?xml version="1.0" encoding="utf-8"?>
<!-- Generator: Adobe Illustrator 23.0.3, SVG Export Plug-In . SVG Version: 6.00 Build 0)  -->
<svg version="1.1" id="Слой_1" xmlns="http://www.w3.org/2000/svg" xmlns:xlink="http://www.w3.org/1999/xlink" x="0px" y="0px"
	 viewBox="0 0 612 792" style="enable-background:new 0 0 612 792;" xml:space="preserve">
<g>
	<g>
		<path d="M231.4,396.1c0-2.1,0-4.2,0-6.2c0-1.1,0.4-1.5,1.5-1.5c2.9,0,5.8,0,8.7,0c1.4,0,2,1.2,2.9,1.9c1.3,1.1,1.9,2.3,1.7,4
			c-0.2,1.7,0,3.5-0.1,5.3c0,0.6-0.5,1.2-0.8,1.8c0,0-0.1,0.1-0.1,0.1c-1.6,2.5-4,3-6.8,2.7c-1.7-0.2-3.4,0-5,0
			c-1.9,0-2.1-0.1-2.1-2C231.4,400.1,231.4,398.1,231.4,396.1C231.4,396.1,231.4,396.1,231.4,396.1z M241.3,396.2
			c0.9-2.3-0.7-3.5-2.2-4.6c-0.5-0.4-1.6-0.2-2.4-0.3c-0.1,0-0.3,0.7-0.2,1c0.1,0.6,0.5,1.2,0.5,1.9c0.1,1.3,0.1,2.6,0,3.8
			c-0.1,0.8-0.4,1.5-0.6,2.2c-0.1,0.3,0.1,0.9,0.2,0.9c0.8,0,1.8,0.2,2.4-0.2C240.6,399.8,242.2,398.6,241.3,396.2z"/>
		<path d="M307.1,396.3c0,1.4,0,2.7,0,4.1c0,1.6-0.7,2.1-2.2,2.8c-3.1,1.6-6.3,0.6-9.4,0.9c-1.5,0.1-2-1.4-3-2.1
			c-0.9-0.7-1.3-1.7-1.2-2.9c0.1-1.8,0-3.5,0-5.3c0-2.9,2.5-5.4,5.4-5.4c1.9,0,3.8-0.2,5.6,0.1c1.4,0.2,2.7,1,4,1.7
			c0.4,0.2,0.7,1,0.7,1.6C307.2,393.3,307.1,394.8,307.1,396.3z M303.7,396.3c-0.5-1.2-0.8-2.2-1.3-3.1c-0.5-0.8-1.2-1.6-2-2
			c-1.1-0.5-2.4-0.1-3,1.1c-0.6,1.2-1.7,2.4-1.3,3.9c0.2,1,0.5,2.1,1,2.9c0.4,0.8,1.1,1.7,1.9,2c1,0.4,2.3,0.2,2.9-0.9
			C302.6,399.1,303.1,397.7,303.7,396.3z"/>
		<path d="M279.9,388.4c1.4,0,2.6,0,3.8,0c0.9,0,1.5,0.4,1.4,1.3c-0.1,0.8-0.1,1.8-0.5,2.2c-0.7,0.6-1.7,0.3-2.5-0.4
			c-0.8-0.7-3.3-0.3-4.1,0.4c-1.4,1.1-2,2.4-1.8,4.1c0.1,0.5-0.1,1,0,1.6c0.1,0.9,0.1,2.3,0.6,2.6c1.7,1,3.6,2,5.7,0.6
			c0.5-0.3,1.4-0.3,2-0.1c0.3,0.1,0.5,0.9,0.5,1.4c0.1,2-0.1,2.1-2,2.1c-1.6,0-3.2-0.1-4.8,0c-2.6,0.1-4.6-1.1-6.3-3
			c-0.3-0.3-0.3-0.8-0.5-1.2c-0.3-0.7-0.5-1.4-0.9-2.1c-0.4-0.8-0.4-2.8,0.2-3.5c0.3-0.4,0.6-0.9,0.6-1.3c0.3-1.9,1.6-2.8,3.1-3.8
			C276.4,388,278.3,388.6,279.9,388.4z"/>
		<path d="M316.4,397.2c0-1.8,0-3.7,0-5.5c0-1,0.4-1.4,1.4-1.4c2,0,4,0,6,0c1.7,0,2.4,1.5,3,2.6c0.4,0.8,0.1,2.2-0.3,3.2
			c-0.3,0.9-0.5,1.5,0.1,2.3c0.9,1.2,0.7,4.1-0.4,5.1c-0.4,0.3-0.9,0.6-1.4,0.6c-2.4,0.1-4.7,0-7.1,0c-1,0-1.4-0.5-1.4-1.5
			C316.4,400.8,316.4,399,316.4,397.2z M319.9,400.2c0.2,0.6,0.3,1.6,0.7,1.8c0.5,0.2,1.3-0.3,2-0.5c0.2-0.1,0.4-0.2,0.7-0.2
			c1-0.2,1.1-0.8,0.9-1.6c-0.3-1.1-1.7-1.8-3-1.6C319.9,398.3,320.2,399.3,319.9,400.2z M320.1,394.2c0.1,0.8-0.3,2,1.2,2
			c0.9,0,2-1.1,2-2c0-1-1.1-2.1-2.1-2.1C319.8,392.3,320.2,393.4,320.1,394.2z"/>
		<path d="M355.7,404.1c-2.2,0.4-4.2-0.3-5.6-1.9c-1.8-2-2.5-4.7-1.6-7.1c0.5-1.4,1.4-2.9,3.2-3.9c2.1-1.2,4.2-1.1,6.2-0.7
			c1.6,0.3,3.5,1.1,4.5,3.2c0.8,1.7,0.9,3.4,0.7,5.1c-0.2,1.6-0.7,3.4-2.2,4.2c-1.5,0.8-3.3,1.1-5,1.6
			C355.8,404.3,355.7,404.2,355.7,404.1z M351.9,397.2c0.1,1,0,2.2,0.5,2.9c0.7,0.9,2,1.4,3.1,2c0.2,0.1,0.5,0,0.7-0.1
			c0.5-0.2,1-0.4,1.5-0.7c0.6-0.5,1.4-1,1.6-1.7c0.6-2.1,0-4.2-1.1-6c-0.4-0.7-1.6-1.2-2.4-1.2c-0.9,0-1.9,0.7-2.7,1.3
			C351.7,394.6,352.2,396,351.9,397.2z"/>
		<path d="M376.6,404.1c-0.1,0-0.2,0-0.2,0c-2.9,0.6-4.9-0.8-6.5-3c-0.3-0.4-0.4-0.9-0.4-1.3c-0.1-1.2,0-2.5,0-3.7
			c0-2.6,1.1-3.5,3.3-4.8c2.7-1.7,5.4-0.6,8.1-1c0.9-0.1,1.3,0.4,1.3,1.3c0,0.5,0,1-0.1,1.6c0,0.2-0.4,0.4-0.6,0.4
			c-1.3-0.4-2.6-0.9-3.8-1.3c0,0-0.1,0-0.1,0c-1.3-0.2-4,1.6-4.3,3c-0.1,0.4-0.3,0.8-0.5,1c-0.6,0.7-0.6,1.4-0.1,2.2
			c0.4,0.6,0.5,1.4,1,1.8c1,0.8,2.1,1.5,3.3,2c1.1,0.4,1.9-0.5,2.3-1.3c0.3-0.6,0.2-1.6,0-2.4c-0.1-0.2-0.9-0.2-1.4-0.4
			c-0.5-0.2-1.2-0.5-1.3-0.9c-0.1-0.9,0.7-0.9,1.3-0.9c1,0,1.9,0,2.9,0c1,0,1.4,0.4,1.4,1.4c0,1.4,0,2.8,0,4.2c0,1.2-1,2.2-2.2,2.2
			C378.7,404.1,377.7,404.1,376.6,404.1C376.6,404.1,376.6,404.1,376.6,404.1z"/>
		<path d="M337.2,395.7c0,1.2,0,2.5,0,3.7c0,1.7,0.2,1.9,1.8,1.9c1,0,1.9,0,2.9,0c0.9,0,1.3,0.4,1.3,1.3c0,0.9-0.3,1.5-1.3,1.4
			c-2.4,0-4.7,0-7.1,0c-0.9,0-1.4-0.4-1.4-1.4c0-3.7,0-7.4,0-11.1c0-1.5,1.1-1.3,2-1.3c1,0,1.8,0.1,1.7,1.4
			C337.1,393,337.1,394.4,337.2,395.7C337.1,395.7,337.1,395.7,337.2,395.7z"/>
		<path d="M260.2,391.1c-2.4,0-4.9,0-7.3,0c-1,0-1.6-0.3-1.6-1.4c0-1.1,0.6-1.4,1.5-1.4c4.9,0,9.7,0,14.6,0c1,0,1.6,0.3,1.6,1.4
			c0,1.2-0.7,1.4-1.6,1.4C265,391.1,262.6,391.1,260.2,391.1z"/>
		<path d="M260.3,401.3c2.4,0,4.8,0,7.2,0c0.9,0,1.5,0.2,1.5,1.3c0,1.1-0.5,1.5-1.5,1.5c-4.9,0-9.7,0-14.6,0c-1,0-1.6-0.3-1.5-1.5
			c0-1.1,0.6-1.3,1.5-1.3C255.3,401.4,257.8,401.3,260.3,401.3z"/>
		<path d="M259.1,397.1c-2.1,0-4.2,0-6.3,0c-0.9,0-1.4-0.4-1.4-1.3c0-1,0.4-1.4,1.4-1.4c4.3,0,8.6,0,12.9,0c0.9,0,1.4,0.4,1.4,1.3
			c0,1-0.4,1.5-1.4,1.4C263.5,397.1,261.3,397.1,259.1,397.1z"/>
	</g>
</g>
</svg>
